<?xml version="1.0" encoding="UTF-8" standalone="no"?>
<!DOCTYPE svg PUBLIC "-//W3C//DTD SVG 1.1//EN"
 "http://www.w3.org/Graphics/SVG/1.1/DTD/svg11.dtd">
<!-- Generated by graphviz version 2.38.0 (20140413.2041)
 -->
<!-- Title: G Pages: 1 -->
<svg width="2140pt" height="124pt"
 viewBox="0.00 0.00 2140.05 123.98" xmlns="http://www.w3.org/2000/svg" xmlns:xlink="http://www.w3.org/1999/xlink">
<g id="graph0" class="graph" transform="scale(1 1) rotate(0) translate(7.992 115.992)">
<title>G</title>
<polygon fill="#000000" stroke="none" points="-7.992,7.992 -7.992,-115.992 2132.06,-115.992 2132.06,7.992 -7.992,7.992"/>
<!-- index.js -->
<g id="node1" class="node"><title>index.js</title>
<ellipse fill="none" stroke="#c6c5fe" cx="1070.99" cy="-90" rx="42.4939" ry="18"/>
<text text-anchor="middle" x="1070.99" y="-86.3" font-family="Arial" font-size="14.00" fill="#c6c5fe">index.js</text>
</g>
<!-- ../node_modules/fun&#45;arrow/src/index.js -->
<g id="node2" class="node"><title>../node_modules/fun&#45;arrow/src/index.js</title>
<ellipse fill="none" stroke="#cfffac" cx="168.985" cy="-18" rx="168.97" ry="18"/>
<text text-anchor="middle" x="168.985" y="-14.3" font-family="Arial" font-size="14.00" fill="#cfffac">../node_modules/fun&#45;arrow/src/index.js</text>
</g>
<!-- index.js&#45;&gt;../node_modules/fun&#45;arrow/src/index.js -->
<g id="edge1" class="edge"><title>index.js&#45;&gt;../node_modules/fun&#45;arrow/src/index.js</title>
<path fill="none" stroke="#757575" d="M1029.33,-86.275C918.358,-78.9443 606.318,-57.8733 346.985,-36 331.359,-34.682 314.968,-33.2222 298.724,-31.7279"/>
<polygon fill="#757575" stroke="#757575" points="298.917,-28.2309 288.637,-30.794 298.272,-35.2011 298.917,-28.2309"/>
</g>
<!-- ../node_modules/fun&#45;curry/src/index.js -->
<g id="node3" class="node"><title>../node_modules/fun&#45;curry/src/index.js</title>
<ellipse fill="none" stroke="#cfffac" cx="522.985" cy="-18" rx="167.07" ry="18"/>
<text text-anchor="middle" x="522.985" y="-14.3" font-family="Arial" font-size="14.00" fill="#cfffac">../node_modules/fun&#45;curry/src/index.js</text>
</g>
<!-- index.js&#45;&gt;../node_modules/fun&#45;curry/src/index.js -->
<g id="edge2" class="edge"><title>index.js&#45;&gt;../node_modules/fun&#45;curry/src/index.js</title>
<path fill="none" stroke="#757575" d="M1031.13,-83.9094C949.262,-73.4515 759.514,-49.2135 636.471,-33.4963"/>
<polygon fill="#757575" stroke="#757575" points="636.618,-29.9869 626.255,-32.1915 635.731,-36.9304 636.618,-29.9869"/>
</g>
<!-- ../node_modules/fun&#45;function/src/index.js -->
<g id="node4" class="node"><title>../node_modules/fun&#45;function/src/index.js</title>
<ellipse fill="none" stroke="#cfffac" cx="886.985" cy="-18" rx="178.969" ry="18"/>
<text text-anchor="middle" x="886.985" y="-14.3" font-family="Arial" font-size="14.00" fill="#cfffac">../node_modules/fun&#45;function/src/index.js</text>
</g>
<!-- index.js&#45;&gt;../node_modules/fun&#45;function/src/index.js -->
<g id="edge3" class="edge"><title>index.js&#45;&gt;../node_modules/fun&#45;function/src/index.js</title>
<path fill="none" stroke="#757575" d="M1040.6,-77.4409C1013.29,-67.05 972.565,-51.5577 939.91,-39.1344"/>
<polygon fill="#757575" stroke="#757575" points="941.087,-35.8375 930.496,-35.553 938.598,-42.3801 941.087,-35.8375"/>
</g>
<!-- ../node_modules/fun&#45;object/src/index.js -->
<g id="node5" class="node"><title>../node_modules/fun&#45;object/src/index.js</title>
<ellipse fill="none" stroke="#cfffac" cx="1255.99" cy="-18" rx="172.47" ry="18"/>
<text text-anchor="middle" x="1255.99" y="-14.3" font-family="Arial" font-size="14.00" fill="#cfffac">../node_modules/fun&#45;object/src/index.js</text>
</g>
<!-- index.js&#45;&gt;../node_modules/fun&#45;object/src/index.js -->
<g id="edge4" class="edge"><title>index.js&#45;&gt;../node_modules/fun&#45;object/src/index.js</title>
<path fill="none" stroke="#757575" d="M1101.53,-77.4409C1129.09,-67.0147 1170.22,-51.4523 1203.11,-39.0078"/>
<polygon fill="#757575" stroke="#757575" points="1204.47,-42.2341 1212.59,-35.4216 1201.99,-35.687 1204.47,-42.2341"/>
</g>
<!-- ../node_modules/fun&#45;type/src/index.js -->
<g id="node6" class="node"><title>../node_modules/fun&#45;type/src/index.js</title>
<ellipse fill="none" stroke="#cfffac" cx="1610.99" cy="-18" rx="164.371" ry="18"/>
<text text-anchor="middle" x="1610.99" y="-14.3" font-family="Arial" font-size="14.00" fill="#cfffac">../node_modules/fun&#45;type/src/index.js</text>
</g>
<!-- index.js&#45;&gt;../node_modules/fun&#45;type/src/index.js -->
<g id="edge5" class="edge"><title>index.js&#45;&gt;../node_modules/fun&#45;type/src/index.js</title>
<path fill="none" stroke="#757575" d="M1110.69,-83.8527C1191.66,-73.3575 1378.36,-49.1546 1499.39,-33.4665"/>
<polygon fill="#757575" stroke="#757575" points="1499.97,-36.9207 1509.43,-32.1641 1499.07,-29.9788 1499.97,-36.9207"/>
</g>
<!-- ../node_modules/guarded/src/index.js -->
<g id="node7" class="node"><title>../node_modules/guarded/src/index.js</title>
<ellipse fill="none" stroke="#cfffac" cx="1958.99" cy="-18" rx="165.171" ry="18"/>
<text text-anchor="middle" x="1958.99" y="-14.3" font-family="Arial" font-size="14.00" fill="#cfffac">../node_modules/guarded/src/index.js</text>
</g>
<!-- index.js&#45;&gt;../node_modules/guarded/src/index.js -->
<g id="edge6" class="edge"><title>index.js&#45;&gt;../node_modules/guarded/src/index.js</title>
<path fill="none" stroke="#757575" d="M1112.4,-86.2506C1222.04,-78.901 1528.91,-57.8669 1783.99,-36 1799.47,-34.6721 1815.73,-33.1998 1831.83,-31.693"/>
<polygon fill="#757575" stroke="#757575" points="1832.19,-35.1738 1841.82,-30.7513 1831.54,-28.2047 1832.19,-35.1738"/>
</g>
</g>
</svg>
